<?xml version="1.0" encoding="UTF-8"?>
<svg version="1.1" xmlns="http://www.w3.org/2000/svg" width="80" height="80">
<path d="M0 0 C3.55980462 2.05603669 5.35419922 3.68143554 7.46484375 7.26953125 C10.33103918 11.06302521 12.6521985 10.91982196 17.1796875 11.61328125 C20.64076525 12.28642441 22.3233958 13.39062431 24.58984375 16.08203125 C25.1476913 18.12747226 25.53346479 20.17637245 25.93359375 22.2578125 C26.50516503 24.45289632 26.50516503 24.45289632 29.52734375 25.83203125 C30.53796875 26.24453125 31.54859375 26.65703125 32.58984375 27.08203125 C36.07492946 30.78800267 36.09036102 33.77080962 35.953125 38.66796875 C35.44410403 42.05049521 34.08695473 43.80525359 31.58984375 46.08203125 C28.83044225 47.461732 26.57942186 47.23218146 23.49121094 47.2590332 C21.56846344 47.27828606 21.56846344 47.27828606 19.60687256 47.29792786 C18.20015855 47.3060963 16.79344017 47.31353983 15.38671875 47.3203125 C14.67892525 47.32438803 13.97113174 47.32846355 13.24188995 47.33266258 C9.49378247 47.35352688 5.7457116 47.36782557 1.99755859 47.37719727 C-1.86727142 47.38824746 -5.73152341 47.42262935 -9.59614944 47.46236897 C-12.57309003 47.48856477 -15.5498937 47.4968918 -18.52693939 47.50047874 C-19.95105634 47.5053391 -21.3751674 47.51693751 -22.79917145 47.53551674 C-24.79728745 47.55996067 -26.79568491 47.55651823 -28.79394531 47.55200195 C-29.92930725 47.55786819 -31.06466919 47.56373444 -32.23443604 47.56977844 C-36.91422118 46.85102745 -39.98534247 44.53395565 -43.2578125 41.19921875 C-45.61845479 36.86203867 -44.97883141 31.8550688 -44.41015625 27.08203125 C-42.60966234 23.1347946 -41.17723535 21.59341732 -37.59765625 19.20703125 C-34.0153407 17.94268459 -31.18209884 17.85571469 -27.41015625 18.08203125 C-27.31734375 16.31859375 -27.31734375 16.31859375 -27.22265625 14.51953125 C-26.40037192 8.15527578 -23.26363819 4.55725157 -18.34765625 0.64453125 C-12.75447952 -2.16426929 -5.79747166 -2.20811319 0 0 Z " fill="#61B9FE" transform="translate(44.41015625,16.91796875)"/>
<path d="M0 0 C0.66 0.66 1.32 1.32 2 2 C1.51789062 2.38671875 1.03578125 2.7734375 0.5390625 3.171875 C-0.09257813 3.69265625 -0.72421875 4.2134375 -1.375 4.75 C-2.00148437 5.26046875 -2.62796875 5.7709375 -3.2734375 6.296875 C-6.87137901 9.84597568 -7.65268611 14.23949093 -9 19 C-10 20 -10 20 -13.625 20.25 C-17.5058591 20.76137674 -20.58034117 21.57532488 -23.6953125 24.015625 C-26.25096409 27.90266395 -25.91079417 32.16060387 -25.703125 36.66796875 C-24.95631906 40.2069991 -24.3410638 41.4504754 -21.625 43.75 C-20.43270219 44.52523891 -19.22581757 45.27893084 -18 46 C-17.34 46.66 -16.68 47.32 -16 48 C-18.70942393 48.10861833 -21.414439 48.18758577 -24.125 48.25 C-24.88554687 48.28351563 -25.64609375 48.31703125 -26.4296875 48.3515625 C-31.79095335 48.44399812 -34.77058837 47.5893523 -39 44 C-42.09333444 40.84780719 -42.43194692 38.48972446 -42.4375 34.125 C-42.29279297 28.95958802 -41.72485594 25.82287847 -38 22 C-33.59229224 19.06152816 -30.24009642 18.68559422 -25 19 C-24.9071875 17.2365625 -24.9071875 17.2365625 -24.8125 15.4375 C-23.99021567 9.07324453 -20.85348194 5.47522032 -15.9375 1.5625 C-11.07123033 -0.94599742 -5.3159429 -0.69373458 0 0 Z " fill="#1CA8FE" transform="translate(42,16)"/>
<path d="M0 0 C0 3.63 0 7.26 0 11 C-7.38804781 11.36334661 -7.38804781 11.36334661 -10 9.8125 C-11.36703913 7.33474158 -11.41826612 5.78844081 -11 3 C-8.63169142 -1.2925593 -4.30785219 -0.21186158 0 0 Z " fill="#C5E4FE" transform="translate(52,45)"/>
<path d="M0 0 C0 3.63 0 7.26 0 11 C-7.38804781 11.36334661 -7.38804781 11.36334661 -10 9.8125 C-11.36703913 7.33474158 -11.41826612 5.78844081 -11 3 C-8.63169142 -1.2925593 -4.30785219 -0.21186158 0 0 Z " fill="#C6E4FE" transform="translate(39,45)"/>
<path d="M0 0 C0.763125 0.20625 1.52625 0.4125 2.3125 0.625 C2.6425 2.275 2.9725 3.925 3.3125 5.625 C2.6525 5.625 1.9925 5.625 1.3125 5.625 C0.9825 4.965 0.6525 4.305 0.3125 3.625 C-0.6775 3.625 -1.6675 3.625 -2.6875 3.625 C-2.6875 4.615 -2.6875 5.605 -2.6875 6.625 C-1.90375 6.91375 -1.12 7.2025 -0.3125 7.5 C2.3125 8.625 2.3125 8.625 4.3125 10.625 C3.75694444 15.18055556 3.75694444 15.18055556 2.3125 16.625 C-0.02047433 16.66592937 -2.35455225 16.66741723 -4.6875 16.625 C-5.0175 14.975 -5.3475 13.325 -5.6875 11.625 C-5.0275 11.625 -4.3675 11.625 -3.6875 11.625 C-3.3575 12.285 -3.0275 12.945 -2.6875 13.625 C-1.6975 13.625 -0.7075 13.625 0.3125 13.625 C0.3125 12.635 0.3125 11.645 0.3125 10.625 C-0.491875 10.315625 -1.29625 10.00625 -2.125 9.6875 C-4.6875 8.625 -4.6875 8.625 -5.6875 7.625 C-5.9375 4.6875 -5.9375 4.6875 -5.6875 1.625 C-2.6875 -0.375 -2.6875 -0.375 0 0 Z " fill="#C5E3FE" transform="translate(22.6875,39.375)"/>
<path d="M0 0 C2.4375 0.8125 2.4375 0.8125 4.4375 2.8125 C4.4375 3.8025 4.4375 4.7925 4.4375 5.8125 C3.7775 5.8125 3.1175 5.8125 2.4375 5.8125 C2.1075 5.1525 1.7775 4.4925 1.4375 3.8125 C-0.58713255 3.16036708 -0.58713255 3.16036708 -2.5625 2.8125 C-2.44943303 4.77144361 -2.44943303 4.77144361 -1.5625 6.8125 C0.89454762 8.04540201 0.89454762 8.04540201 3.4375 8.8125 C4.4375 9.8125 4.4375 9.8125 4.625 12.25 C4.4375 14.8125 4.4375 14.8125 2.4375 16.8125 C-0.5625 17.0625 -0.5625 17.0625 -3.5625 16.8125 C-4.2225 16.1525 -4.8825 15.4925 -5.5625 14.8125 C-5.5625 13.8225 -5.5625 12.8325 -5.5625 11.8125 C-4.9025 11.8125 -4.2425 11.8125 -3.5625 11.8125 C-3.2325 12.4725 -2.9025 13.1325 -2.5625 13.8125 C-1.2425 13.8125 0.0775 13.8125 1.4375 13.8125 C1.4375 12.8225 1.4375 11.8325 1.4375 10.8125 C-0.5425 10.1525 -2.5225 9.4925 -4.5625 8.8125 C-5.89091008 3.37809513 -5.89091008 3.37809513 -4.4375 0.875 C-2.5625 -0.1875 -2.5625 -0.1875 0 0 Z " fill="#CCE6FE" transform="translate(59.5625,39.1875)"/>
<path d="M0 0 C2 3 2 3 3 5 C4.97888961 5.72693904 6.97954558 6.39816251 9 7 C8.67 8.32 8.34 9.64 8 11 C6.35 10.67 4.7 10.34 3 10 C3 9.34 3 8.68 3 8 C2.34 8 1.68 8 1 8 C0.67 9.65 0.34 11.3 0 13 C-0.33 13 -0.66 13 -1 13 C-1.02696365 11.20841511 -1.04637917 9.41671527 -1.0625 7.625 C-1.07410156 6.62726562 -1.08570313 5.62953125 -1.09765625 4.6015625 C-1 2 -1 2 0 0 Z " fill="#70BFFE" transform="translate(53,43)"/>
<path d="M0 0 C0.33 0 0.66 0 1 0 C1.226875 0.94875 1.45375 1.8975 1.6875 2.875 C2.69083714 6.19323388 2.69083714 6.19323388 5.625 7.375 C6.800625 7.684375 6.800625 7.684375 8 8 C7.67 9.32 7.34 10.64 7 12 C5.68 11.67 4.36 11.34 3 11 C3 10.34 3 9.68 3 9 C2.34 9 1.68 9 1 9 C0.67 9.99 0.34 10.98 0 12 C0 8.04 0 4.08 0 0 Z " fill="#7CC5FE" transform="translate(16,42)"/>
<path d="M0 0 C0.99 1.32 1.98 2.64 3 4 C5.38564077 3.42415568 7.66682784 2.77772405 10 2 C10 3.65 10 5.3 10 7 C3.9453125 7.1953125 3.9453125 7.1953125 2 7 C0 5 0 5 -0.125 2.375 C-0.08375 1.59125 -0.0425 0.8075 0 0 Z " fill="#D1E9FF" transform="translate(29,49)"/>
<path d="M0 0 C1.65 0 3.3 0 5 0 C5.625 1.875 5.625 1.875 6 4 C5.34 4.66 4.68 5.32 4 6 C1.875 5.625 1.875 5.625 0 5 C0 3.35 0 1.7 0 0 Z " fill="#6DBEFE" transform="translate(31,48)"/>
<path d="M0 0 C2.0625 0.4375 2.0625 0.4375 4 1 C4 1.66 4 2.32 4 3 C4.66 3 5.32 3 6 3 C6.33 2.01 6.66 1.02 7 0 C7 1.32 7 2.64 7 4 C4.69 4.33 2.38 4.66 0 5 C-0.5625 3.0625 -0.5625 3.0625 -1 1 C-0.67 0.67 -0.34 0.34 0 0 Z " fill="#70C0FE" transform="translate(20,42)"/>
<path d="M0 0 C1.65 0 3.3 0 5 0 C5 1.65 5 3.3 5 5 C3.35 5 1.7 5 0 5 C0 3.35 0 1.7 0 0 Z " fill="#64BAFE" transform="translate(44,48)"/>
<path d="M0 0 C0.33 0.99 0.66 1.98 1 3 C4.51190809 4.22969878 4.51190809 4.22969878 8 5 C8.33 6.65 8.66 8.3 9 10 C8.608125 9.54625 8.21625 9.0925 7.8125 8.625 C6.04152575 6.82044977 6.04152575 6.82044977 3.375 6.125 C2.59125 5.75375 1.8075 5.3825 1 5 C0.1875 2.375 0.1875 2.375 0 0 Z " fill="#D5EAFF" transform="translate(17,43)"/>
<path d="M0 0 C0.66 0 1.32 0 2 0 C2.268125 0.78375 2.53625 1.5675 2.8125 2.375 C3.84814432 5.28114923 3.84814432 5.28114923 7 7 C4.625 7.125 4.625 7.125 2 7 C0 5 0 5 -0.125 2.375 C-0.08375 1.59125 -0.0425 0.8075 0 0 Z " fill="#D2E9FF" transform="translate(41,48)"/>
<path d="M0 0 C1.65 0 3.3 0 5 0 C4.67 1.32 4.34 2.64 4 4 C2.68 3.67 1.36 3.34 0 3 C0 2.01 0 1.02 0 0 Z " fill="#66BBFE" transform="translate(19,50)"/>
</svg>
